<svg width="147" height="69" viewBox="0 0 147 69" fill="none" xmlns="http://www.w3.org/2000/svg">
<path d="M35.0033 47.7333L41.9498 43.7169H59.2939V10.4344M35.0033 47.7333L27.1884 43.7169H10.7955V10.4344M35.0033 47.7333V51M35.0033 51L41.9498 47.1844H63.0066V10.4344H59.2939M35.0033 51L27.1884 47.1844H7.43416L7 10.4344H10.7955M59.2939 10.4344L59.7504 2H43.2523C39.3449 2.00003 36.6676 4.54372 35.0033 6.21721C32.2247 3.0041 27.912 2.06694 26.103 2H10.2562L10.7955 10.4344" stroke="white" stroke-width="3" stroke-linecap="round" stroke-linejoin="round"/>
<path d="M16.1172 25.0481H22.8467M44.1205 25.0481H37.391L35.6544 23.2407L33.2665 29.667L31.5298 19.8268L28.4907 25.0481H22.8467M22.8467 25.0481C17.2026 13.2001 31.964 8.98301 36.0885 17.0155C40.8643 8.78354 54.3232 13.4023 49.1133 25.0481C48.6791 26.2997 38.3462 34.9703 36.0885 36.8982L27.4053 29.667" stroke="white" stroke-width="3" stroke-linecap="round" stroke-linejoin="round"/>
<path d="M64.3545 38.75H139M64.3545 45.2833H131.409" stroke="white" stroke-width="3" stroke-linecap="round"/>
<path d="M73.2109 33.8498V13.4331L82.9106 33.8498L92.6103 13.4331L93.032 33.8498" stroke="white" stroke-width="3" stroke-linecap="round" stroke-linejoin="round"/>
<path d="M101.466 34.1705V24.3705M101.466 24.3705V13.7539H106.948C116.226 13.7539 116.226 24.3705 106.948 24.3705H106.105M101.466 24.3705H106.105M114.961 34.1705L109.057 24.3705H106.105M137.312 19.8789C137.312 12.1205 122.552 10.4872 121.287 19.8789C121.139 20.9737 121.287 24.8462 121.287 27.6372C121.287 36.6205 137.312 36.2122 137.312 27.6372" stroke="white" stroke-width="3" stroke-linecap="round" stroke-linejoin="round"/>
<path d="M2.4929 59.8423L1.4098 58.2266H2.8054L3.56179 59.8423H2.4929ZM7.4636 59.8423L6.3805 58.2266H7.7761L8.53249 59.8423H7.4636ZM10.5735 66V58.7273H15.4741V59.995H12.1112V61.728H15.2219V62.9957H12.1112V64.7322H15.4883V66H10.5735ZM21.7534 60.5455L19.8464 66H18.1419L16.2349 60.5455H17.8329L18.9657 64.4482H19.0225L20.1518 60.5455H21.7534ZM24.8375 66.1065C24.2765 66.1065 23.7935 65.9929 23.3887 65.7656C22.9862 65.536 22.6761 65.2116 22.4583 64.7926C22.2405 64.3712 22.1316 63.8729 22.1316 63.2976C22.1316 62.7365 22.2405 62.2441 22.4583 61.8203C22.6761 61.3965 22.9827 61.0663 23.378 60.8295C23.7757 60.5928 24.2421 60.4744 24.7772 60.4744C25.137 60.4744 25.472 60.5324 25.7821 60.6484C26.0946 60.7621 26.3669 60.9337 26.5989 61.1634C26.8333 61.393 27.0156 61.6818 27.1458 62.0298C27.276 62.3755 27.3411 62.7803 27.3411 63.2443V63.6598H22.7353V62.7223H25.9171C25.9171 62.5045 25.8697 62.3116 25.775 62.1435C25.6803 61.9754 25.5489 61.844 25.3809 61.7493C25.2151 61.6522 25.0222 61.6037 24.802 61.6037C24.5724 61.6037 24.3688 61.657 24.1912 61.7635C24.016 61.8677 23.8787 62.0085 23.7793 62.1861C23.6799 62.3613 23.629 62.5566 23.6266 62.772V63.6634C23.6266 63.9332 23.6763 64.1664 23.7757 64.3629C23.8775 64.5594 24.0208 64.7109 24.2054 64.8175C24.3901 64.924 24.6091 64.9773 24.8624 64.9773C25.0305 64.9773 25.1844 64.9536 25.324 64.9062C25.4637 64.8589 25.5833 64.7879 25.6827 64.6932C25.7821 64.5985 25.8579 64.4825 25.91 64.3452L27.3091 64.4375C27.2381 64.7737 27.0925 65.0672 26.8723 65.3182C26.6545 65.5668 26.3728 65.7609 26.0272 65.9006C25.6839 66.0379 25.2873 66.1065 24.8375 66.1065ZM28.3283 66V60.5455H29.7949V61.4972H29.8517C29.9512 61.1586 30.1181 60.9029 30.3525 60.7301C30.5868 60.5549 30.8567 60.4673 31.1621 60.4673C31.2379 60.4673 31.3195 60.4721 31.4071 60.4815C31.4947 60.491 31.5717 60.504 31.638 60.5206V61.8629C31.5669 61.8416 31.4687 61.8227 31.3432 61.8061C31.2177 61.7895 31.1029 61.7812 30.9988 61.7812C30.7762 61.7812 30.5774 61.8298 30.4022 61.9268C30.2293 62.0215 30.092 62.1541 29.9902 62.3246C29.8908 62.495 29.8411 62.6915 29.8411 62.9141V66H28.3283ZM33.5201 68.0455C33.3283 68.0455 33.1484 68.0301 32.9803 67.9993C32.8146 67.9709 32.6773 67.9342 32.5684 67.8892L32.9093 66.7599C33.0868 66.8144 33.2466 66.844 33.3887 66.8487C33.5331 66.8535 33.6574 66.8203 33.7615 66.7493C33.8681 66.6783 33.9545 66.5575 34.0208 66.3871L34.1096 66.1562L32.1529 60.5455H33.7438L34.873 64.5511H34.9299L36.0698 60.5455H37.6713L35.5513 66.5895C35.4495 66.883 35.311 67.1387 35.1358 67.3565C34.963 67.5767 34.744 67.746 34.4789 67.8643C34.2137 67.9851 33.8941 68.0455 33.5201 68.0455ZM40.7884 66V58.7273H42.326V64.7322H45.4439V66H40.7884ZM46.4338 66V60.5455H47.9466V66H46.4338ZM47.1937 59.8423C46.9688 59.8423 46.7759 59.7678 46.6149 59.6186C46.4563 59.4671 46.377 59.286 46.377 59.0753C46.377 58.867 46.4563 58.6882 46.6149 58.5391C46.7759 58.3875 46.9688 58.3118 47.1937 58.3118C47.4186 58.3118 47.6104 58.3875 47.769 58.5391C47.93 58.6882 48.0105 58.867 48.0105 59.0753C48.0105 59.286 47.93 59.4671 47.769 59.6186C47.6104 59.7678 47.4186 59.8423 47.1937 59.8423ZM52.0916 60.5455V61.6818H48.7251V60.5455H52.0916ZM49.4957 66V60.1513C49.4957 59.7559 49.5727 59.428 49.7266 59.1676C49.8828 58.9072 50.0959 58.7119 50.3658 58.5817C50.6357 58.4515 50.9422 58.3864 51.2855 58.3864C51.5175 58.3864 51.7294 58.4041 51.9212 58.4396C52.1153 58.4751 52.2597 58.5071 52.3544 58.5355L52.0845 59.6719C52.0253 59.6529 51.9519 59.6352 51.8643 59.6186C51.7791 59.602 51.6915 59.5938 51.6016 59.5938C51.379 59.5938 51.224 59.6458 51.1364 59.75C51.0488 59.8518 51.005 59.995 51.005 60.1797V66H49.4957ZM55.3063 66.1065C54.7452 66.1065 54.2623 65.9929 53.8574 65.7656C53.455 65.536 53.1448 65.2116 52.927 64.7926C52.7092 64.3712 52.6003 63.8729 52.6003 63.2976C52.6003 62.7365 52.7092 62.2441 52.927 61.8203C53.1448 61.3965 53.4514 61.0663 53.8468 60.8295C54.2445 60.5928 54.7109 60.4744 55.2459 60.4744C55.6058 60.4744 55.9408 60.5324 56.2509 60.6484C56.5634 60.7621 56.8356 60.9337 57.0676 61.1634C57.302 61.393 57.4843 61.6818 57.6145 62.0298C57.7447 62.3755 57.8098 62.7803 57.8098 63.2443V63.6598H53.204V62.7223H56.3858C56.3858 62.5045 56.3385 62.3116 56.2438 62.1435C56.1491 61.9754 56.0177 61.844 55.8496 61.7493C55.6839 61.6522 55.4909 61.6037 55.2708 61.6037C55.0411 61.6037 54.8375 61.657 54.66 61.7635C54.4848 61.8677 54.3475 62.0085 54.248 62.1861C54.1486 62.3613 54.0977 62.5566 54.0953 62.772V63.6634C54.0953 63.9332 54.1451 64.1664 54.2445 64.3629C54.3463 64.5594 54.4895 64.7109 54.6742 64.8175C54.8588 64.924 55.0778 64.9773 55.3311 64.9773C55.4992 64.9773 55.6531 64.9536 55.7928 64.9062C55.9325 64.8589 56.052 64.7879 56.1515 64.6932C56.2509 64.5985 56.3266 64.4825 56.3787 64.3452L57.7779 64.4375C57.7069 64.7737 57.5613 65.0672 57.3411 65.3182C57.1233 65.5668 56.8416 65.7609 56.4959 65.9006C56.1526 66.0379 55.7561 66.1065 55.3063 66.1065ZM61.1399 66V58.7273H62.6776V61.728H65.799V58.7273H67.3331V66H65.799V62.9957H62.6776V66H61.1399ZM68.5724 66V60.5455H70.0852V66H68.5724ZM69.3324 59.8423C69.1075 59.8423 68.9145 59.7678 68.7536 59.6186C68.5949 59.4671 68.5156 59.286 68.5156 59.0753C68.5156 58.867 68.5949 58.6882 68.7536 58.5391C68.9145 58.3875 69.1075 58.3118 69.3324 58.3118C69.5573 58.3118 69.7491 58.3875 69.9077 58.5391C70.0687 58.6882 70.1491 58.867 70.1491 59.0753C70.1491 59.286 70.0687 59.4671 69.9077 59.6186C69.7491 59.7678 69.5573 59.8423 69.3324 59.8423ZM75.8354 62.1009L74.4505 62.1861C74.4268 62.0677 74.3759 61.9612 74.2978 61.8665C74.2196 61.7694 74.1167 61.6925 73.9888 61.6357C73.8633 61.5765 73.713 61.5469 73.5378 61.5469C73.3034 61.5469 73.1058 61.5966 72.9448 61.696C72.7838 61.7931 72.7033 61.9233 72.7033 62.0866C72.7033 62.2169 72.7554 62.3269 72.8596 62.4169C72.9637 62.5069 73.1425 62.5791 73.3958 62.6335L74.383 62.8324C74.9133 62.9413 75.3087 63.1165 75.5691 63.358C75.8295 63.5994 75.9597 63.9167 75.9597 64.3097C75.9597 64.6671 75.8543 64.9808 75.6436 65.2507C75.4353 65.5206 75.1489 65.7313 74.7843 65.8828C74.4221 66.032 74.0042 66.1065 73.5307 66.1065C72.8087 66.1065 72.2334 65.9562 71.8049 65.6555C71.3787 65.3525 71.129 64.9406 71.0556 64.4197L72.5435 64.3416C72.5885 64.5618 72.6974 64.7299 72.8702 64.8459C73.043 64.9595 73.2644 65.0163 73.5343 65.0163C73.7994 65.0163 74.0125 64.9654 74.1735 64.8636C74.3368 64.7595 74.4197 64.6257 74.4221 64.4624C74.4197 64.325 74.3617 64.2126 74.248 64.125C74.1344 64.035 73.9592 63.9664 73.7225 63.919L72.7779 63.7308C72.2452 63.6243 71.8487 63.4396 71.5882 63.1768C71.3302 62.9141 71.2012 62.5791 71.2012 62.1719C71.2012 61.8215 71.2959 61.5196 71.4853 61.2663C71.677 61.013 71.9457 60.8177 72.2914 60.6804C72.6394 60.5431 73.0466 60.4744 73.513 60.4744C74.2019 60.4744 74.744 60.62 75.1394 60.9112C75.5371 61.2024 75.7691 61.599 75.8354 62.1009ZM79.8136 60.5455V61.6818H76.5288V60.5455H79.8136ZM77.2745 59.2386H78.7873V64.3239C78.7873 64.4635 78.8086 64.5724 78.8512 64.6506C78.8938 64.7263 78.953 64.7796 79.0288 64.8104C79.1069 64.8411 79.1969 64.8565 79.2987 64.8565C79.3697 64.8565 79.4407 64.8506 79.5117 64.8388C79.5827 64.8246 79.6372 64.8139 79.6751 64.8068L79.913 65.9325C79.8372 65.9562 79.7307 65.9834 79.5934 66.0142C79.4561 66.0473 79.2892 66.0675 79.0927 66.0746C78.7281 66.0888 78.4085 66.0402 78.1339 65.929C77.8616 65.8177 77.6497 65.6449 77.4982 65.4105C77.3467 65.1761 77.2721 64.8802 77.2745 64.5227V59.2386ZM83.2049 66.1065C82.6533 66.1065 82.1763 65.9893 81.7738 65.755C81.3737 65.5182 81.0647 65.1892 80.8469 64.7678C80.6291 64.344 80.5202 63.8527 80.5202 63.294C80.5202 62.7306 80.6291 62.2382 80.8469 61.8168C81.0647 61.393 81.3737 61.0639 81.7738 60.8295C82.1763 60.5928 82.6533 60.4744 83.2049 60.4744C83.7565 60.4744 84.2324 60.5928 84.6325 60.8295C85.0349 61.0639 85.3451 61.393 85.5629 61.8168C85.7807 62.2382 85.8896 62.7306 85.8896 63.294C85.8896 63.8527 85.7807 64.344 85.5629 64.7678C85.3451 65.1892 85.0349 65.5182 84.6325 65.755C84.2324 65.9893 83.7565 66.1065 83.2049 66.1065ZM83.212 64.9347C83.4629 64.9347 83.6725 64.8636 83.8406 64.7216C84.0086 64.5772 84.1353 64.3807 84.2205 64.1321C84.3081 63.8835 84.3519 63.6006 84.3519 63.2834C84.3519 62.9661 84.3081 62.6832 84.2205 62.4347C84.1353 62.1861 84.0086 61.9896 83.8406 61.8452C83.6725 61.7008 83.4629 61.6286 83.212 61.6286C82.9587 61.6286 82.7456 61.7008 82.5728 61.8452C82.4023 61.9896 82.2733 62.1861 82.1857 62.4347C82.1005 62.6832 82.0579 62.9661 82.0579 63.2834C82.0579 63.6006 82.1005 63.8835 82.1857 64.1321C82.2733 64.3807 82.4023 64.5772 82.5728 64.7216C82.7456 64.8636 82.9587 64.9347 83.212 64.9347ZM86.8732 66V60.5455H88.3398V61.4972H88.3967C88.4961 61.1586 88.663 60.9029 88.8974 60.7301C89.1317 60.5549 89.4016 60.4673 89.707 60.4673C89.7828 60.4673 89.8645 60.4721 89.9521 60.4815C90.0397 60.491 90.1166 60.504 90.1829 60.5206V61.8629C90.1119 61.8416 90.0136 61.8227 89.8881 61.8061C89.7627 61.7895 89.6478 61.7812 89.5437 61.7812C89.3211 61.7812 89.1223 61.8298 88.9471 61.9268C88.7743 62.0215 88.637 62.1541 88.5352 62.3246C88.4357 62.495 88.386 62.6915 88.386 62.9141V66H86.8732ZM92.065 68.0455C91.8732 68.0455 91.6933 68.0301 91.5252 67.9993C91.3595 67.9709 91.2222 67.9342 91.1133 67.8892L91.4542 66.7599C91.6317 66.8144 91.7915 66.844 91.9336 66.8487C92.078 66.8535 92.2023 66.8203 92.3065 66.7493C92.413 66.6783 92.4994 66.5575 92.5657 66.3871L92.6545 66.1562L90.6978 60.5455H92.2887L93.418 64.5511H93.4748L94.6147 60.5455H96.2163L94.0962 66.5895C93.9944 66.883 93.8559 67.1387 93.6808 67.3565C93.5079 67.5767 93.2889 67.746 93.0238 67.8643C92.7586 67.9851 92.439 68.0455 92.065 68.0455ZM99.3333 58.7273H101.23L103.232 63.6136H103.318L105.32 58.7273H107.217V66H105.725V61.2663H105.665L103.783 65.9645H102.767L100.885 61.2486H100.825V66H99.3333V58.7273ZM110.011 66.103C109.663 66.103 109.353 66.0426 109.08 65.9219C108.808 65.7988 108.593 65.6177 108.434 65.3786C108.278 65.1371 108.2 64.8364 108.2 64.4766C108.2 64.1735 108.255 63.919 108.366 63.7131C108.478 63.5071 108.629 63.3414 108.821 63.2159C109.013 63.0904 109.231 62.9957 109.474 62.9318C109.721 62.8679 109.979 62.8229 110.249 62.7969C110.566 62.7637 110.821 62.733 111.016 62.7045C111.21 62.6738 111.351 62.6288 111.438 62.5696C111.526 62.5104 111.57 62.4228 111.57 62.3068V62.2855C111.57 62.0606 111.499 61.8866 111.357 61.7635C111.217 61.6404 111.018 61.5788 110.76 61.5788C110.488 61.5788 110.271 61.6392 110.11 61.7599C109.949 61.8783 109.843 62.0275 109.79 62.2074L108.391 62.0938C108.462 61.7623 108.602 61.4759 108.81 61.2344C109.019 60.9905 109.287 60.8035 109.616 60.6733C109.948 60.5407 110.331 60.4744 110.767 60.4744C111.07 60.4744 111.36 60.5099 111.637 60.581C111.916 60.652 112.164 60.7621 112.379 60.9112C112.597 61.0604 112.769 61.2521 112.894 61.4865C113.02 61.7185 113.082 61.9967 113.082 62.321V66H111.648V65.2436H111.605C111.518 65.4141 111.4 65.5644 111.254 65.6946C111.107 65.8224 110.93 65.9231 110.724 65.9964C110.518 66.0675 110.281 66.103 110.011 66.103ZM110.444 65.0589C110.666 65.0589 110.863 65.0152 111.033 64.9276C111.204 64.8376 111.338 64.7169 111.435 64.5653C111.532 64.4138 111.58 64.2422 111.58 64.0504V63.4716C111.533 63.5024 111.468 63.5308 111.385 63.5568C111.304 63.5805 111.213 63.603 111.112 63.6243C111.01 63.6432 110.908 63.661 110.806 63.6776C110.704 63.6918 110.612 63.7048 110.529 63.7166C110.352 63.7427 110.196 63.7841 110.064 63.8409C109.931 63.8977 109.828 63.9747 109.755 64.0717C109.682 64.1664 109.645 64.2848 109.645 64.4268C109.645 64.6328 109.719 64.7902 109.869 64.8991C110.02 65.0057 110.212 65.0589 110.444 65.0589ZM117.157 60.5455V61.6818H113.873V60.5455H117.157ZM114.618 59.2386H116.131V64.3239C116.131 64.4635 116.152 64.5724 116.195 64.6506C116.238 64.7263 116.297 64.7796 116.373 64.8104C116.451 64.8411 116.541 64.8565 116.642 64.8565C116.713 64.8565 116.784 64.8506 116.855 64.8388C116.926 64.8246 116.981 64.8139 117.019 64.8068L117.257 65.9325C117.181 65.9562 117.074 65.9834 116.937 66.0142C116.8 66.0473 116.633 66.0675 116.436 66.0746C116.072 66.0888 115.752 66.0402 115.478 65.929C115.205 65.8177 114.993 65.6449 114.842 65.4105C114.69 65.1761 114.616 64.8802 114.618 64.5227V59.2386ZM121.044 60.5455V61.6818H117.759V60.5455H121.044ZM118.505 59.2386H120.018V64.3239C120.018 64.4635 120.039 64.5724 120.082 64.6506C120.124 64.7263 120.183 64.7796 120.259 64.8104C120.337 64.8411 120.427 64.8565 120.529 64.8565C120.6 64.8565 120.671 64.8506 120.742 64.8388C120.813 64.8246 120.868 64.8139 120.906 64.8068L121.143 65.9325C121.068 65.9562 120.961 65.9834 120.824 66.0142C120.687 66.0473 120.52 66.0675 120.323 66.0746C119.959 66.0888 119.639 66.0402 119.364 65.929C119.092 65.8177 118.88 65.6449 118.729 65.4105C118.577 65.1761 118.503 64.8802 118.505 64.5227V59.2386ZM124.457 66.1065C123.896 66.1065 123.413 65.9929 123.008 65.7656C122.605 65.536 122.295 65.2116 122.077 64.7926C121.86 64.3712 121.751 63.8729 121.751 63.2976C121.751 62.7365 121.86 62.2441 122.077 61.8203C122.295 61.3965 122.602 61.0663 122.997 60.8295C123.395 60.5928 123.861 60.4744 124.396 60.4744C124.756 60.4744 125.091 60.5324 125.401 60.6484C125.714 60.7621 125.986 60.9337 126.218 61.1634C126.452 61.393 126.635 61.6818 126.765 62.0298C126.895 62.3755 126.96 62.7803 126.96 63.2443V63.6598H122.354V62.7223H125.536C125.536 62.5045 125.489 62.3116 125.394 62.1435C125.299 61.9754 125.168 61.844 125 61.7493C124.834 61.6522 124.641 61.6037 124.421 61.6037C124.192 61.6037 123.988 61.657 123.81 61.7635C123.635 61.8677 123.498 62.0085 123.398 62.1861C123.299 62.3613 123.248 62.5566 123.246 62.772V63.6634C123.246 63.9332 123.295 64.1664 123.395 64.3629C123.497 64.5594 123.64 64.7109 123.825 64.8175C124.009 64.924 124.228 64.9773 124.482 64.9773C124.65 64.9773 124.804 64.9536 124.943 64.9062C125.083 64.8589 125.202 64.7879 125.302 64.6932C125.401 64.5985 125.477 64.4825 125.529 64.3452L126.928 64.4375C126.857 64.7737 126.712 65.0672 126.491 65.3182C126.274 65.5668 125.992 65.7609 125.646 65.9006C125.303 66.0379 124.906 66.1065 124.457 66.1065ZM127.947 66V60.5455H129.414V61.4972H129.471C129.57 61.1586 129.737 60.9029 129.972 60.7301C130.206 60.5549 130.476 60.4673 130.781 60.4673C130.857 60.4673 130.939 60.4721 131.026 60.4815C131.114 60.491 131.191 60.504 131.257 60.5206V61.8629C131.186 61.8416 131.088 61.8227 130.962 61.8061C130.837 61.7895 130.722 61.7812 130.618 61.7812C130.395 61.7812 130.196 61.8298 130.021 61.9268C129.848 62.0215 129.711 62.1541 129.609 62.3246C129.51 62.495 129.46 62.6915 129.46 62.9141V66H127.947ZM136.578 62.1009L135.193 62.1861C135.169 62.0677 135.118 61.9612 135.04 61.8665C134.962 61.7694 134.859 61.6925 134.731 61.6357C134.606 61.5765 134.455 61.5469 134.28 61.5469C134.046 61.5469 133.848 61.5966 133.687 61.696C133.526 61.7931 133.445 61.9233 133.445 62.0866C133.445 62.2169 133.498 62.3269 133.602 62.4169C133.706 62.5069 133.885 62.5791 134.138 62.6335L135.125 62.8324C135.655 62.9413 136.051 63.1165 136.311 63.358C136.572 63.5994 136.702 63.9167 136.702 64.3097C136.702 64.6671 136.597 64.9808 136.386 65.2507C136.177 65.5206 135.891 65.7313 135.526 65.8828C135.164 66.032 134.746 66.1065 134.273 66.1065C133.551 66.1065 132.976 65.9562 132.547 65.6555C132.121 65.3525 131.871 64.9406 131.798 64.4197L133.286 64.3416C133.331 64.5618 133.44 64.7299 133.612 64.8459C133.785 64.9595 134.007 65.0163 134.276 65.0163C134.542 65.0163 134.755 64.9654 134.916 64.8636C135.079 64.7595 135.162 64.6257 135.164 64.4624C135.162 64.325 135.104 64.2126 134.99 64.125C134.877 64.035 134.701 63.9664 134.465 63.919L133.52 63.7308C132.987 63.6243 132.591 63.4396 132.33 63.1768C132.072 62.9141 131.943 62.5791 131.943 62.1719C131.943 61.8215 132.038 61.5196 132.227 61.2663C132.419 61.013 132.688 60.8177 133.034 60.6804C133.382 60.5431 133.789 60.4744 134.255 60.4744C134.944 60.4744 135.486 60.62 135.882 60.9112C136.279 61.2024 136.511 61.599 136.578 62.1009ZM139.544 59.8423L138.461 58.2266H139.856L140.613 59.8423H139.544ZM144.514 59.8423L143.431 58.2266H144.827L145.583 59.8423H144.514Z" fill="white"/>
</svg>
